<svg width="101" height="102" viewBox="0 0 101 102" fill="none" xmlns="http://www.w3.org/2000/svg">
<path d="M20.1206 0H80.4822C91.5902 0 100.603 9.05502 100.603 20.2152V80.8609C100.603 92.0211 91.5902 101.076 80.4822 101.076H20.1206C9.01261 101.076 0 92.0211 0 80.8609V20.2152C0 9.05502 9.01261 0 20.1206 0Z" fill="#1F1F1F"/>
<g clip-path="url(#clip0_151_640)">
<path d="M33.457 73.1451V27.9812C33.8902 27.9812 34.2832 27.9812 34.6784 27.9812C40.7028 27.9812 46.7272 27.9812 52.7539 27.9812C62.7707 27.9812 71.6399 35.4852 73.3682 45.4867C74.5092 52.0942 73.8192 58.433 69.9004 64.0311C65.7718 69.9272 60.0377 73.0368 52.8477 73.1293C46.8233 73.2061 40.7989 73.1451 34.7745 73.1451H33.457ZM39.9414 65.9189H41.0087C45.0994 65.9189 49.1902 65.9821 53.2809 65.9031C58.0169 65.8128 61.8128 63.7217 64.5816 59.8782C67.2477 56.177 67.7524 51.9474 67.1249 47.5169C66.1491 40.6271 59.9952 35.2187 53.1178 35.2097C49.6591 35.2052 46.2003 35.2097 42.7437 35.2097H39.9459V65.9212L39.9414 65.9189Z" fill="white"/>
<path d="M16 47.6276C16.2947 45.9362 16.5069 44.2222 16.9021 42.5534C19.2578 32.588 24.8178 24.9689 33.4614 19.6395C33.678 19.5063 33.908 19.4001 34.234 19.2285V24.5533H30.0674C30.0674 26.9922 30.0361 29.3091 30.083 31.626C30.1009 32.4638 29.8619 33.1119 29.3662 33.7803C21.9708 43.739 21.944 57.2724 29.3104 67.2739C29.853 68.0123 30.1053 68.7214 30.083 69.636C30.0294 71.8852 30.0651 74.1366 30.0651 76.5122H34.2474V82.0764C32.5548 80.8931 30.9092 79.8972 29.4354 78.6846C21.7632 72.3594 17.2862 64.2389 16.1965 54.2509C16.1697 53.9957 16.067 53.7496 16 53.4989C16 51.5411 16 49.5855 16 47.6276Z" fill="white"/>
<path d="M59.2406 15.6018C73.4754 18.4449 87.257 32.1657 86.9957 51.0803C86.7367 69.7647 72.8859 82.8464 59.216 85.5156C59.216 82.9503 59.1892 80.4098 59.2585 77.8693C59.2652 77.6232 59.848 77.3048 60.2164 77.1738C66.828 74.8343 71.9459 70.6566 75.4895 64.5302C83.0792 51.4146 78.6223 34.1258 65.6245 26.5044C63.6149 25.3256 61.4244 24.463 59.2384 23.4174V15.6018H59.2406Z" fill="white"/>
<path d="M43.9561 12.0001V24.4043H37.6615C37.6615 21.9587 37.6503 19.565 37.6771 17.1691C37.6793 16.9184 37.8468 16.5842 38.0433 16.4329C39.9324 14.9877 41.8437 13.5763 43.9561 11.9978V12.0001Z" fill="white"/>
<path d="M55.7441 24.4156H49.4964C49.4964 21.9542 49.4853 19.5582 49.5121 17.1646C49.5143 16.9139 49.684 16.5819 49.8827 16.4306C51.7718 14.9877 53.6832 13.574 55.7441 12.0339V24.4156Z" fill="white"/>
<path d="M37.7959 76.5664H43.9454V89C41.8576 87.4464 39.8882 85.9921 37.9411 84.5085C37.7759 84.382 37.6754 84.0659 37.6731 83.8378C37.6553 81.5435 37.662 79.2469 37.6731 76.9526C37.6731 76.8193 37.758 76.6861 37.7982 76.5664H37.7959Z" fill="white"/>
<path d="M49.4963 76.564H55.7731V88.9931C53.6942 87.4463 51.7293 85.992 49.7777 84.5151C49.6281 84.4022 49.5075 84.1471 49.5075 83.9574C49.4896 81.5208 49.4963 79.0842 49.4963 76.5618V76.564Z" fill="white"/>
</g>
<defs>
<clipPath id="clip0_151_640">
<rect width="71" height="77" fill="white" transform="translate(16 12)"/>
</clipPath>
</defs>
</svg>
