<svg width="100" height="100" viewBox="0 0 100 100" fill="none" xmlns="http://www.w3.org/2000/svg">
<path d="M100 50C100 77.6 77.6 100 50 100C22.4 100 0 77.6 0 50C0 22.4 22.4 0 50 0C77.6 0 100 22.4 100 50Z" fill="#1F1F1F"/>
<g clip-path="url(#clip0_151_646)">
<path d="M48.5848 87.0001C41.3422 83.8073 35.5257 78.7213 30.0986 73.1243C29.2833 72.2823 28.4997 71.4038 27.7501 70.5034C26.6233 69.1504 26.7158 67.4713 27.9278 66.3811C29.1908 65.2447 31.0429 65.3712 32.2913 66.6439C34.6106 69.0117 36.7936 71.545 39.3174 73.6719C42.211 76.1102 45.4162 78.1835 48.4875 80.4151C49.641 81.2546 50.7313 81.1524 51.9725 80.4516C66.1486 72.4478 74.647 60.2828 78.2196 44.6208C79.1323 40.6251 79.4511 36.4906 79.9403 32.4096C80.1447 30.6964 79.9549 30.6283 78.2756 30.2998C76.2897 29.9128 74.3039 29.521 72.3399 29.0465C70.4441 28.589 69.5363 27.0608 70.0133 25.316C70.4295 23.7926 72.0332 22.9774 73.7904 23.3473C75.9685 23.8072 78.1491 24.2525 80.3345 24.6614C83.9558 25.3379 86.1705 27.9709 85.9879 31.9886C85.3211 46.682 81.1498 60.166 71.6901 71.7251C66.813 77.6871 60.8846 82.3959 54.0825 86.0048C53.2745 86.4331 52.3643 86.6691 51.5028 86.9928H48.5824L48.5848 87.0001Z" fill="white"/>
<path d="M15 30.2413C16.1171 26.4086 18.8403 24.766 22.6758 24.3085C29.0642 23.5468 34.7955 20.9259 40.2713 17.6918C42.0113 16.6625 43.7174 15.5771 45.4623 14.5526C49.0933 12.4209 52.6635 12.4404 56.1778 14.8641C58.042 16.149 59.9573 17.3584 61.8361 18.6239C63.5323 19.7652 63.9826 21.4005 63.0383 22.88C62.0843 24.3766 60.2542 24.6881 58.5603 23.593C56.5891 22.3203 54.6105 21.05 52.6952 19.6922C51.3226 18.7188 50.0546 18.765 48.6358 19.5656C44.5545 21.8701 40.5146 24.2671 36.3214 26.3478C32.0625 28.46 27.492 29.7303 22.7391 30.2608C21.3276 30.419 21.0574 30.767 21.0452 32.2198C20.9771 39.8658 22.228 47.2417 25.4648 54.2331C26.3068 56.0534 25.7447 57.6862 24.1433 58.4163C22.4957 59.1658 20.8189 58.4601 19.9696 56.6301C17.2365 50.7435 15.7252 44.543 15.2263 38.0869C15.1923 37.6513 15.0779 37.223 15 36.7923C15 34.6094 15 32.4266 15 30.2438V30.2413Z" fill="white"/>
<path d="M32.476 39.3352C34.5641 49.9501 38.9666 59.2874 47.409 66.9382C47.409 66.1425 47.409 65.685 47.409 65.2299C47.409 52.7802 47.4066 40.328 47.4115 27.8783C47.4115 25.62 48.7841 24.1964 50.8016 24.4179C51.3735 24.4811 52.0208 24.7123 52.454 25.0798C56.6424 28.6254 61.5925 30.6914 66.7129 32.4216C67.9371 32.8353 69.205 33.1249 70.4559 33.4607C73.5004 34.2735 74.71 36.3955 74.1746 39.4958C73.2376 44.9346 71.8358 50.2153 69.3778 55.1845C65.6543 62.7161 60.3124 68.9167 53.7025 74.0659C51.5 75.7816 49.0712 75.7183 46.769 74.0173C35.9537 66.0306 29.8257 55.1383 26.9345 42.2408C26.679 41.0995 26.4624 39.946 26.2628 38.7925C25.8491 36.4077 27.0805 34.6385 29.3706 33.9012C32.4054 32.9229 35.4086 31.8376 38.3874 30.6938C40.125 30.0271 41.8164 30.4213 42.5928 31.8984C43.4129 33.4559 42.8556 35.2201 41.0328 36.0037C38.3996 37.1353 35.6787 38.0625 32.9944 39.0772C32.8484 39.1332 32.7121 39.2159 32.4736 39.3352H32.476ZM53.6198 33.4948V66.3153C61.702 58.735 66.5474 49.7651 68.0393 39.34C63.077 37.33 58.3387 35.4075 53.6198 33.4972V33.4948Z" fill="white"/>
</g>
<defs>
<clipPath id="clip0_151_646">
<rect width="71" height="74" fill="white" transform="translate(15 13)"/>
</clipPath>
</defs>
</svg>
