<svg width="36" height="36" viewBox="0 0 36 36" fill="none" xmlns="http://www.w3.org/2000/svg">
<path d="M18.4068 34.14C18.0587 29.7569 16.3884 25.976 13.2895 22.8856C10.1873 19.791 6.40035 18.1277 2.03291 17.7576C2.39507 17.6082 2.7579 17.6473 3.10932 17.5975C5.03905 17.3223 6.89421 16.8068 8.64925 15.9335C10.9096 14.8091 12.8487 13.2871 14.4539 11.3398C16.0739 9.37298 17.2114 7.15385 17.8625 4.68913C18.2099 3.37367 18.3987 2.03331 18.4303 0.670753C18.437 0.369307 18.3214 0.244153 18.0164 0.250209C17.6576 0.256938 17.3015 0.286544 16.9447 0.317496C14.8591 0.497152 12.8675 1.0267 10.9794 1.93104C7.04068 3.81642 4.18371 6.76763 2.42128 10.7604C1.2078 13.5111 0.754257 16.3984 1.04318 19.3981C1.21317 21.1637 1.63043 22.8667 2.31646 24.5004C3.37539 27.023 4.93491 29.1843 7.00574 30.9748C8.93347 32.6415 11.1179 33.8419 13.5609 34.5491C16.2849 35.3377 19.0438 35.4615 21.8342 34.9151C24.0737 34.4764 26.1513 33.6353 28.0508 32.3878C30.3608 30.8705 32.2173 28.9071 33.6068 26.5036C35.0676 23.9763 35.8107 21.2464 35.9531 18.3423C35.9787 17.8141 35.9135 17.7428 35.4721 17.767C33.6068 17.8686 31.7725 18.1607 30.0188 18.8207C25.7051 20.4444 22.4638 23.296 20.3573 27.4093C19.3186 29.4373 18.7152 31.5965 18.5559 33.8749C18.5499 33.9583 18.5748 34.0592 18.4061 34.1406L18.4068 34.14ZM34.4796 2.58103C34.4911 1.72447 34.4911 1.70832 33.8064 1.73523C31.7161 1.818 29.7379 2.35427 27.8821 3.31042C25.351 4.61512 23.3581 6.50184 21.9182 8.96657C20.7128 11.0296 20.0718 13.2595 19.9717 15.6448C19.9461 16.2591 19.9865 16.2982 20.612 16.2564C22.15 16.1535 23.6571 15.8783 25.097 15.3137C28.0044 14.1732 30.3595 12.3329 32.0856 9.71143C33.543 7.49836 34.3177 5.05988 34.479 2.5817L34.4796 2.58103Z" fill="url(#paint0_linear_156_1100)"/>
<defs>
<linearGradient id="paint0_linear_156_1100" x1="35.2995" y1="17.674" x2="0.960325" y2="17.4594" gradientUnits="userSpaceOnUse">
<stop stop-color="#36F5FF"/>
<stop offset="1" stop-color="#0085FF"/>
</linearGradient>
</defs>
</svg>
