<svg width="29" height="29" viewBox="0 0 29 29" fill="none" xmlns="http://www.w3.org/2000/svg">
<circle cx="14.7422" cy="14.3652" r="14" fill="#F8F8F8"/>
<path d="M17.5266 14.5352C17.5266 15.0523 17.3733 15.5578 17.086 15.9877C16.7987 16.4177 16.3904 16.7527 15.9127 16.9506C15.435 17.1485 14.9093 17.2003 14.4021 17.0994C13.895 16.9985 13.4292 16.7495 13.0635 16.3839C12.6979 16.0183 12.4489 15.5524 12.348 15.0453C12.2471 14.5381 12.2989 14.0125 12.4968 13.5347C12.6947 13.057 13.0298 12.6487 13.4597 12.3614C13.8896 12.0742 14.3951 11.9208 14.9122 11.9208C15.6053 11.9216 16.2698 12.1973 16.76 12.6874C17.2501 13.1776 17.5258 13.8421 17.5266 14.5352ZM23.0822 10.9404V18.13C23.0808 19.343 22.5983 20.506 21.7406 21.3637C20.8829 22.2214 19.72 22.7039 18.507 22.7052H11.3174C10.1044 22.7039 8.94147 22.2214 8.08375 21.3637C7.22603 20.506 6.74356 19.343 6.74219 18.13V10.9404C6.74356 9.72744 7.22603 8.56452 8.08375 7.7068C8.94147 6.84908 10.1044 6.36661 11.3174 6.36523H18.507C19.72 6.36661 20.8829 6.84908 21.7406 7.7068C22.5983 8.56452 23.0808 9.72744 23.0822 10.9404ZM18.8338 14.5352C18.8338 13.7596 18.6038 13.0014 18.1729 12.3565C17.742 11.7116 17.1295 11.209 16.4129 10.9121C15.6963 10.6153 14.9078 10.5377 14.1471 10.689C13.3864 10.8403 12.6876 11.2138 12.1392 11.7622C11.5908 12.3107 11.2173 13.0095 11.0659 13.7702C10.9146 14.5309 10.9923 15.3194 11.2891 16.036C11.5859 16.7525 12.0886 17.365 12.7335 17.7959C13.3784 18.2268 14.1366 18.4568 14.9122 18.4568C15.9519 18.4557 16.9487 18.0421 17.6839 17.3069C18.4191 16.5717 18.8326 15.5749 18.8338 14.5352ZM20.141 10.2868C20.141 10.0929 20.0835 9.90338 19.9758 9.74215C19.868 9.58093 19.7149 9.45527 19.5358 9.38106C19.3566 9.30686 19.1595 9.28744 18.9693 9.32527C18.7791 9.3631 18.6045 9.45648 18.4673 9.59359C18.3302 9.7307 18.2369 9.90539 18.199 10.0956C18.1612 10.2857 18.1806 10.4829 18.2548 10.662C18.329 10.8412 18.4547 10.9943 18.6159 11.102C18.7771 11.2097 18.9667 11.2672 19.1606 11.2672C19.4206 11.2672 19.67 11.1639 19.8538 10.9801C20.0377 10.7962 20.141 10.5469 20.141 10.2868Z" fill="black"/>
</svg>
