<svg width="43" height="43" viewBox="0 0 43 43" fill="none" xmlns="http://www.w3.org/2000/svg">
<rect x="0.458496" y="0.749756" width="42" height="42" rx="21" fill="#2785E3"/>
<path d="M36 24.3514V25.7351C36 25.8216 35.9562 25.8649 35.8687 25.9081C35.4311 26.0811 33.8995 26.773 33.2869 27.6378C31.6677 29.8432 30.4425 33 27.7293 33H16.3079C12.282 33 9 29.7568 9 25.7351V25.6054C9 25.5189 9.08752 25.4324 9.17504 25.4324H15.6078C15.7391 25.4324 15.8266 25.5622 15.8266 25.6486C15.7828 26.0378 15.8703 26.4703 16.0454 26.8595C16.4392 27.6378 17.2269 28.0703 18.0583 28.0703H21.2091V25.6486H18.1021C17.9271 25.6486 17.8395 25.4757 17.9271 25.3459C17.9708 25.3027 18.0146 25.2595 18.0583 25.173C18.3647 24.7405 18.7585 24.1351 19.1961 23.4C19.5024 22.9243 19.765 22.3622 19.9838 21.8432C20.0276 21.7568 20.0713 21.6703 20.1151 21.5405C20.1588 21.3676 20.2464 21.1946 20.2901 21.0649C20.3339 20.9351 20.3776 20.8054 20.4214 20.6757C20.5089 20.2432 20.5527 19.7676 20.5527 19.2486C20.5527 19.0757 20.5527 18.8595 20.5089 18.6432C20.5089 18.427 20.4652 18.2108 20.4652 17.9946C20.4652 17.8216 20.4214 17.6054 20.3776 17.4324C20.3339 17.1297 20.2901 16.8703 20.2026 16.5676L20.1588 16.4811C20.1151 16.3081 20.0713 16.0919 19.9838 15.9189C19.8088 15.3135 19.5899 14.7081 19.3711 14.1892C19.2836 13.973 19.1961 13.7568 19.1086 13.5405C18.9773 13.2378 18.846 12.9351 18.7147 12.6757C18.671 12.5459 18.5835 12.4595 18.5397 12.3297C18.4959 12.2 18.4084 12.0703 18.3647 11.9405C18.3209 11.854 18.2771 11.7676 18.2334 11.6811L17.8395 10.9892C17.7958 10.9027 17.8833 10.773 17.9708 10.8162L20.3776 11.4649L20.684 11.5513L21.034 11.6378L21.1653 11.6811V10.2541C21.1653 9.56216 21.7342 9 22.3906 9C22.7407 9 23.047 9.12972 23.2658 9.34594C23.4846 9.56216 23.6159 9.86486 23.6159 10.2108V12.2865L23.8784 12.373C23.8784 12.373 23.9222 12.373 23.9222 12.4162C23.966 12.4595 24.0535 12.5459 24.1848 12.6324C24.2723 12.7189 24.3598 12.8054 24.4911 12.8919C24.7099 13.0649 25.0162 13.3243 25.3225 13.5838C25.41 13.6703 25.4976 13.7135 25.5413 13.8C25.9352 14.1459 26.3728 14.5784 26.8104 15.0541C26.9417 15.1838 27.0292 15.3135 27.1604 15.4432C27.2917 15.573 27.3793 15.7459 27.5105 15.8757C27.6418 16.0486 27.8169 16.2649 27.9481 16.4378C27.9919 16.5243 28.0794 16.6108 28.1232 16.7405C28.2982 17 28.4295 17.2595 28.6045 17.5189C28.6483 17.6486 28.7358 17.7784 28.7796 17.9081C28.9546 18.2541 29.0859 18.6 29.1297 18.9892C29.1734 19.0757 29.1734 19.1622 29.1734 19.2054C29.2172 19.2919 29.2172 19.4216 29.2172 19.5513C29.2609 19.9405 29.2172 20.2865 29.1734 20.6757C29.1297 20.8486 29.0859 20.9784 29.0421 21.1513C28.9984 21.2811 28.9546 21.4541 28.8671 21.627C28.7358 21.9297 28.5608 22.2324 28.3857 22.5351C28.342 22.6216 28.2545 22.7513 28.1669 22.8811C28.0794 23.0108 27.9919 23.0973 27.9481 23.227C27.8606 23.3568 27.7293 23.4865 27.6418 23.6162C27.5543 23.7459 27.4668 23.8757 27.3355 24.0054C27.2042 24.1784 27.0292 24.3513 26.8979 24.5243C26.8104 24.6108 26.7229 24.7405 26.5916 24.827C26.5041 24.9135 26.4165 25.0432 26.2852 25.1297C26.154 25.2595 26.0227 25.3892 25.8914 25.4757L25.6288 25.6919C25.5851 25.7351 25.5413 25.7351 25.4976 25.7351H23.5721V28.1568H25.9789C26.504 28.1568 27.0292 27.9838 27.423 27.6378C27.5543 27.5081 28.1669 26.9892 28.9109 26.2108C28.9546 26.1676 28.9546 26.1676 28.9984 26.1676L35.6499 24.2649C35.9125 24.1351 36 24.2216 36 24.3514Z" fill="white"/>
</svg>
