<svg width="100" height="100" viewBox="0 0 100 100" fill="none" xmlns="http://www.w3.org/2000/svg">
<path d="M100 50C100 77.6 77.6 100 50 100C22.4 100 0 77.6 0 50C0 22.4 22.4 0 50 0C77.6 0 100 22.4 100 50Z" fill="#333333"/>
<path d="M24.6996 51.7006L24.8997 51.4006L37.8997 31.1006C38.0997 30.8006 38.4996 30.8006 38.6996 31.2006C40.8996 36.1006 42.6996 42.1006 41.8997 45.9006C41.4997 47.5006 40.4997 49.6006 39.2997 51.5006C39.1997 51.8006 38.9997 52.1006 38.7997 52.3006C38.6997 52.4006 38.5997 52.5006 38.3997 52.5006H24.9996C24.6996 52.4006 24.4996 52.0006 24.6996 51.7006Z" fill="white"/>
<path d="M82.6004 55.5V58.7C82.6004 58.9 82.5004 59 82.3004 59.1C81.3004 59.5 77.8004 61.1 76.4004 63.1C72.7004 68.2 69.9004 75.5 63.7004 75.5H37.6004C28.4004 75.5 20.9004 68 20.9004 58.7V58.4C20.9004 58.2 21.1004 58 21.3004 58H36.0004C36.3004 58 36.5004 58.3 36.5004 58.5C36.4004 59.4 36.6004 60.4 37.0004 61.3C37.9004 63.1 39.7004 64.1 41.6004 64.1H48.8004V58.5H41.7004C41.3004 58.5 41.1004 58.1 41.3004 57.8C41.4004 57.7 41.5004 57.6 41.6004 57.4C42.3004 56.4 43.2004 55 44.2004 53.3C44.9004 52.2 45.5004 50.9 46.0004 49.7C46.1004 49.5 46.2004 49.3 46.3004 49C46.4004 48.6 46.6004 48.2 46.7004 47.9C46.8004 47.6 46.9004 47.3 47.0004 47C47.2004 46 47.3004 44.9 47.3004 43.7C47.3004 43.3 47.3004 42.8 47.2004 42.3C47.2004 41.8 47.1004 41.3 47.1004 40.8C47.1004 40.4 47.0004 39.9 46.9004 39.5C46.8004 38.8 46.7004 38.2 46.5004 37.5L46.4004 37.3C46.3004 36.9 46.2004 36.4 46.0004 36C45.6004 34.6 45.1004 33.2 44.6004 32C44.4004 31.5 44.2004 31 44.0004 30.5C43.7004 29.8 43.4004 29.1 43.1004 28.5C43.0004 28.2 42.8004 28 42.7004 27.7C42.6004 27.4 42.4004 27.1 42.3004 26.8C42.2004 26.6 42.1004 26.4 42.0004 26.2L41.1004 24.6C41.0004 24.4 41.2004 24.1 41.4004 24.2L46.9004 25.7L47.6004 25.9L48.4004 26.1L48.7004 26.2V22.9C48.7004 21.3 50.0004 20 51.5004 20C52.3004 20 53.0004 20.3 53.5004 20.8C54.0004 21.3 54.3004 22 54.3004 22.8V27.6L54.9004 27.8C54.9004 27.8 55.0004 27.8 55.0004 27.9C55.1004 28 55.3004 28.2 55.6004 28.4C55.8004 28.6 56.0004 28.8 56.3004 29C56.8004 29.4 57.5004 30 58.2004 30.6C58.4004 30.8 58.6004 30.9 58.7004 31.1C59.6004 31.9 60.6004 32.9 61.6004 34C61.9004 34.3 62.1004 34.6 62.4004 34.9C62.7004 35.2 62.9004 35.6 63.2004 35.9C63.5004 36.3 63.9004 36.8 64.2004 37.2C64.3004 37.4 64.5004 37.6 64.6004 37.9C65.0004 38.5 65.3004 39.1 65.7004 39.7C65.8004 40 66.0004 40.3 66.1004 40.6C66.5004 41.4 66.8004 42.2 66.9004 43.1C67.0004 43.3 67.0004 43.5 67.0004 43.6C67.1004 43.8 67.1004 44.1 67.1004 44.4C67.2004 45.3 67.1004 46.1 67.0004 47C66.9004 47.4 66.8004 47.7 66.7004 48.1C66.6004 48.4 66.5004 48.8 66.3004 49.2C66.0004 49.9 65.6004 50.6 65.2004 51.3C65.1004 51.5 64.9004 51.8 64.7004 52.1C64.5004 52.4 64.3004 52.6 64.2004 52.9C64.0004 53.2 63.7004 53.5 63.5004 53.8C63.3004 54.1 63.1004 54.4 62.8004 54.7C62.5004 55.1 62.1004 55.5 61.8004 55.9C61.6004 56.1 61.4004 56.4 61.1004 56.6C60.9004 56.8 60.7004 57.1 60.4004 57.3C60.1004 57.6 59.8004 57.9 59.5004 58.1L58.9004 58.6C58.8004 58.7 58.7004 58.7 58.6004 58.7H54.2004V64.3H59.7004C60.9004 64.3 62.1004 63.9 63.0004 63.1C63.3004 62.8 64.7004 61.6 66.4004 59.8C66.5004 59.7 66.5004 59.7 66.6004 59.7L81.8004 55.3C82.4004 55 82.6004 55.2 82.6004 55.5Z" fill="white"/>
</svg>
