<svg width="28" height="25" viewBox="0 0 28 25" fill="none" xmlns="http://www.w3.org/2000/svg">
<path d="M27.9585 16.1011V17.4849C27.9585 17.5714 27.9147 17.6146 27.8272 17.6579C27.3896 17.8308 25.858 18.5227 25.2454 19.3876C23.6262 21.593 22.401 24.7498 19.6878 24.7498H8.26644C4.2405 24.7498 0.958496 21.5065 0.958496 17.4849V17.3552C0.958496 17.2687 1.04602 17.1822 1.13354 17.1822H7.56627C7.69756 17.1822 7.78508 17.3119 7.78508 17.3984C7.74131 17.7876 7.82884 18.22 8.00388 18.6092C8.39772 19.3876 9.1854 19.82 10.0168 19.82H13.1676V17.3984H10.0606C9.88556 17.3984 9.79804 17.2254 9.88556 17.0957C9.92932 17.0525 9.97308 17.0092 10.0168 16.9227C10.3232 16.4903 10.717 15.8849 11.1546 15.1498C11.4609 14.6741 11.7235 14.1119 11.9423 13.593C11.986 13.5065 12.0298 13.42 12.0736 13.2903C12.1173 13.1173 12.2048 12.9443 12.2486 12.8146C12.2924 12.6849 12.3361 12.5552 12.3799 12.4254C12.4674 11.993 12.5112 11.5173 12.5112 10.9984C12.5112 10.8254 12.5112 10.6092 12.4674 10.393C12.4674 10.1768 12.4237 9.96056 12.4237 9.74435C12.4237 9.57137 12.3799 9.35516 12.3361 9.18219C12.2924 8.87949 12.2486 8.62003 12.1611 8.31732L12.1173 8.23083C12.0736 8.05786 12.0298 7.84165 11.9423 7.66867C11.7672 7.06327 11.5484 6.45786 11.3296 5.93895C11.2421 5.72273 11.1546 5.50651 11.0671 5.2903C10.9358 4.98759 10.8045 4.68489 10.6732 4.42543C10.6295 4.2957 10.542 4.20921 10.4982 4.07948C10.4544 3.94975 10.3669 3.82002 10.3232 3.69029C10.2794 3.6038 10.2356 3.51732 10.1919 3.43084L9.79804 2.73894C9.75428 2.65245 9.8418 2.52273 9.92932 2.56597L12.3361 3.21462L12.6425 3.3011L12.9925 3.38759L13.1238 3.43084V2.00381C13.1238 1.31192 13.6927 0.749756 14.3491 0.749756C14.6992 0.749756 15.0055 0.87948 15.2243 1.0957C15.4431 1.31191 15.5744 1.61462 15.5744 1.96056V4.03624L15.8369 4.12272C15.8369 4.12272 15.8807 4.12273 15.8807 4.16597C15.9245 4.20921 16.012 4.2957 16.1433 4.38219C16.2308 4.46867 16.3183 4.55516 16.4496 4.64165C16.6684 4.81462 16.9747 5.07408 17.281 5.33354C17.3685 5.42002 17.4561 5.46327 17.4998 5.54975C17.8937 5.8957 18.3313 6.32813 18.7689 6.80381C18.9002 6.93354 18.9877 7.06327 19.1189 7.193C19.2502 7.32273 19.3377 7.4957 19.469 7.62543C19.6003 7.7984 19.7753 8.01462 19.9066 8.18759C19.9504 8.27408 20.0379 8.36056 20.0817 8.49029C20.2567 8.74975 20.388 9.00921 20.563 9.26867C20.6068 9.3984 20.6943 9.52813 20.7381 9.65786C20.9131 10.0038 21.0444 10.3498 21.0882 10.7389C21.1319 10.8254 21.1319 10.9119 21.1319 10.9552C21.1757 11.0416 21.1757 11.1714 21.1757 11.3011C21.2194 11.6903 21.1757 12.0362 21.1319 12.4254C21.0882 12.5984 21.0444 12.7281 21.0006 12.9011C20.9569 13.0308 20.9131 13.2038 20.8256 13.3768C20.6943 13.6795 20.5193 13.9822 20.3442 14.2849C20.3005 14.3714 20.2129 14.5011 20.1254 14.6308C20.0379 14.7606 19.9504 14.8471 19.9066 14.9768C19.8191 15.1065 19.6878 15.2362 19.6003 15.366C19.5128 15.4957 19.4253 15.6254 19.294 15.7552C19.1627 15.9281 18.9877 16.1011 18.8564 16.2741C18.7689 16.3606 18.6814 16.4903 18.5501 16.5768C18.4625 16.6633 18.375 16.793 18.2437 16.8795C18.1125 17.0092 17.9812 17.1389 17.8499 17.2254L17.5873 17.4416C17.5436 17.4849 17.4998 17.4849 17.4561 17.4849H15.5306V19.9065H17.9374C18.4625 19.9065 18.9877 19.7335 19.3815 19.3876C19.5128 19.2579 20.1254 18.7389 20.8694 17.9606C20.9131 17.9173 20.9131 17.9173 20.9569 17.9173L27.6084 16.0146C27.871 15.8849 27.9585 15.9714 27.9585 16.1011Z" fill="black"/>
</svg>
