<svg width="101" height="102" viewBox="0 0 101 102" fill="none" xmlns="http://www.w3.org/2000/svg">
<path d="M20.1206 0.5H80.4822C91.3118 0.5 100.103 9.32894 100.103 20.2152V80.8609C100.103 91.7472 91.3118 100.576 80.4822 100.576H20.1206C9.29096 100.576 0.5 91.7472 0.5 80.8609V20.2152C0.5 9.32894 9.29096 0.5 20.1206 0.5Z" fill="#333333" stroke="black"/>
<path d="M69.4145 50.1723C72.5844 49.3492 75.405 46.9606 75.405 42.1699C75.405 34.1945 68.6623 32.3457 60.0392 32.3457H25.6543V68.2419H40.1201V56.0561H57.2857C59.9318 56.0561 61.4764 57.1087 61.4764 59.7132V68.2284H75.9557V59.2544C75.9557 54.3827 73.2156 51.2924 69.4145 50.1723ZM57.5409 46.3803H40.1201V42.8717H57.5409C59.4348 42.8717 60.5899 43.1281 60.5899 44.626C60.5899 46.1239 59.4348 46.3803 57.5409 46.3803Z" fill="white"/>
</svg>
