<svg width="44" height="44" viewBox="0 0 44 44" fill="none" xmlns="http://www.w3.org/2000/svg">
<rect x="0.958496" y="0.749756" width="42" height="42" rx="6.5" fill="#FDDB0A"/>
<rect x="0.958496" y="0.749756" width="42" height="42" rx="6.5" stroke="white"/>
<path d="M31.6223 21.9554L29.8922 22.4087L31.6065 22.9184C33.2886 23.4185 34.5 24.7768 34.5 26.9932V30.9932H28.3037V27.2233C28.3037 26.4698 28.0781 25.8489 27.5745 25.4316C27.0896 25.0299 26.4318 24.8895 25.721 24.8895H17.1896H16.6896V25.3895V31H10.5V14H27.0895C29.2169 14 31.0208 14.234 32.2799 14.9047C32.899 15.2345 33.3774 15.6653 33.7045 16.2225C34.0322 16.7808 34.2263 17.4974 34.2263 18.4263C34.2263 19.5244 33.9084 20.3065 33.4457 20.8571C32.9784 21.413 32.3326 21.7693 31.6223 21.9554ZM16.6896 20.5376V21.0376H17.1896H25.8478C26.3127 21.0376 26.7996 21.0113 27.1757 20.8297C27.3802 20.731 27.5639 20.5818 27.6908 20.3638C27.8152 20.1502 27.8631 19.9082 27.8631 19.6579C27.8631 19.4076 27.8152 19.1656 27.6908 18.9519C27.5639 18.734 27.3802 18.5847 27.1757 18.4861C26.7996 18.3045 26.3127 18.2782 25.8478 18.2782H17.1896H16.6896V18.7782V20.5376Z" fill="black" stroke="black"/>
</svg>
