<svg width="17" height="16" viewBox="0 0 17 16" fill="none" xmlns="http://www.w3.org/2000/svg">
<g clip-path="url(#clip0_0_67)">
<path fill-rule="evenodd" clip-rule="evenodd" d="M13.1601 15.186C13.3747 15.338 13.6514 15.376 13.8981 15.2826C14.1447 15.1886 14.3261 14.978 14.3807 14.7226C14.9601 12 16.3654 5.10864 16.8927 2.63198C16.9327 2.44531 16.8661 2.25131 16.7194 2.12664C16.5727 2.00198 16.3694 1.96598 16.1881 2.03331C13.3927 3.06798 4.78407 6.29798 1.26541 7.59998C1.04207 7.68264 0.89674 7.89731 0.904074 8.13264C0.912074 8.36864 1.07074 8.57331 1.29941 8.64198C2.87741 9.11398 4.94874 9.77064 4.94874 9.77064C4.94874 9.77064 5.91674 12.694 6.42141 14.1806C6.48474 14.3673 6.63074 14.514 6.82341 14.5646C7.01541 14.6146 7.22074 14.562 7.36407 14.4266C8.17474 13.6613 9.42807 12.478 9.42807 12.478C9.42807 12.478 11.8094 14.224 13.1601 15.186ZM5.82007 9.40131L6.93941 13.0933L7.18807 10.7553C7.18807 10.7553 11.5127 6.85464 13.9781 4.63131C14.0501 4.56598 14.0601 4.45664 14.0001 4.37998C13.9407 4.30331 13.8314 4.28531 13.7494 4.33731C10.8921 6.16198 5.82007 9.40131 5.82007 9.40131Z" fill="black"/>
</g>
<defs>
<clipPath id="clip0_0_67">
<rect width="16" height="16" fill="white" transform="translate(0.904053)"/>
</clipPath>
</defs>
</svg>
