<svg width="29" height="29" viewBox="0 0 29 29" fill="none" xmlns="http://www.w3.org/2000/svg">
<circle cx="14.7422" cy="14.3652" r="14" fill="#F8F8F8"/>
<g clip-path="url(#clip0_55_258)">
<path fill-rule="evenodd" clip-rule="evenodd" d="M17.998 21.5512C18.2126 21.7032 18.4893 21.7412 18.736 21.6479C18.9826 21.5539 19.164 21.3432 19.2186 21.0879C19.798 18.3652 21.2033 11.4739 21.7306 8.99721C21.7706 8.81054 21.704 8.61654 21.5573 8.49188C21.4106 8.36721 21.2073 8.33121 21.026 8.39854C18.2306 9.43321 9.62196 12.6632 6.1033 13.9652C5.87996 14.0479 5.73463 14.2625 5.74196 14.4979C5.74996 14.7339 5.90863 14.9385 6.1373 15.0072C7.7153 15.4792 9.78663 16.1359 9.78663 16.1359C9.78663 16.1359 10.7546 19.0592 11.2593 20.5459C11.3226 20.7325 11.4686 20.8792 11.6613 20.9299C11.8533 20.9799 12.0586 20.9272 12.202 20.7919C13.0126 20.0265 14.266 18.8432 14.266 18.8432C14.266 18.8432 16.6473 20.5892 17.998 21.5512ZM10.658 15.7665L11.7773 19.4585L12.026 17.1205C12.026 17.1205 16.3506 13.2199 18.816 10.9965C18.888 10.9312 18.898 10.8219 18.838 10.7452C18.7786 10.6685 18.6693 10.6505 18.5873 10.7025C15.73 12.5272 10.658 15.7665 10.658 15.7665Z" fill="black"/>
</g>
<defs>
<clipPath id="clip0_55_258">
<rect width="16" height="16" fill="white" transform="translate(5.74219 6.36523)"/>
</clipPath>
</defs>
</svg>
