<svg width="29" height="29" viewBox="0 0 29 29" fill="none" xmlns="http://www.w3.org/2000/svg">
<circle cx="14.7422" cy="14.3652" r="14" fill="#F8F8F8"/>
<path d="M19.1775 8.07087C19.1775 8.07087 19.6873 8.55059 19.1775 8.07087C18.4942 7.32214 18.1176 6.36059 18.1179 5.36523H15.0291V17.2623C15.0052 17.9062 14.722 18.516 14.2391 18.9634C13.7562 19.4108 13.1112 19.6609 12.44 19.661C11.0206 19.661 9.84102 18.548 9.84102 17.1664C9.84102 15.5162 11.5004 14.2785 13.2097 14.787V11.7551C9.76105 11.3138 6.74219 13.8851 6.74219 17.1664C6.74219 20.3614 9.50115 22.6352 12.43 22.6352C15.5689 22.6352 18.1179 20.1887 18.1179 17.1664V11.1315C19.3704 11.9949 20.8742 12.4581 22.4163 12.4555V9.49085C22.4163 9.49085 20.537 9.5772 19.1775 8.07087Z" fill="black"/>
</svg>
