<svg width="29" height="29" viewBox="0 0 29 29" fill="none" xmlns="http://www.w3.org/2000/svg">
<circle cx="14.7422" cy="14.3652" r="14" fill="#F8F8F8"/>
<path d="M22.1236 9.84506C21.5577 10.0963 20.9495 10.2655 20.3112 10.3418C20.963 9.95145 21.4635 9.33298 21.6987 8.59596C21.0892 8.95742 20.4137 9.22019 19.6947 9.36182C19.1198 8.74849 18.2988 8.36523 17.3913 8.36523C15.3539 8.36523 13.8568 10.2661 14.3169 12.2394C11.695 12.1081 9.36985 10.8519 7.81312 8.94268C6.98637 10.361 7.38436 12.2164 8.7892 13.1559C8.27264 13.1393 7.78556 12.9976 7.36065 12.7611C7.32604 14.223 8.3739 15.5907 9.89154 15.8951C9.4474 16.0156 8.96096 16.0438 8.46619 15.9489C8.86739 17.2025 10.0325 18.1145 11.4143 18.1402C10.0877 19.1803 8.4162 19.645 6.74219 19.4476C8.1387 20.3429 9.79797 20.8652 11.5797 20.8652C17.4387 20.8652 20.7489 15.9169 20.549 11.4787C21.1655 11.0333 21.7007 10.4776 22.1236 9.84506Z" fill="black"/>
</svg>
